<?xml version="1.0" encoding="UTF-8" standalone="no"?>
<svg
   version="1.1"
   width="1200"
   height="600"
   id="svg10"
   sodipodi:docname="Flag_of_the_Soviet_Union_(TT) (3).svg"
   viewBox="0 0 563.38027 281.69013"
   inkscape:version="1.2.2 (732a01da63, 2022-12-09)"
   xmlns:inkscape="http://www.inkscape.org/namespaces/inkscape"
   xmlns:sodipodi="http://sodipodi.sourceforge.net/DTD/sodipodi-0.dtd"
   xmlns="http://www.w3.org/2000/svg"
   xmlns:svg="http://www.w3.org/2000/svg"
   xmlns:rdf="http://www.w3.org/1999/02/22-rdf-syntax-ns#"
   xmlns:cc="http://creativecommons.org/ns#"
   xmlns:dc="http://purl.org/dc/elements/1.1/">
  <sodipodi:namedview
     id="namedview2666"
     pagecolor="#ffffff"
     bordercolor="#000000"
     borderopacity="0.25"
     inkscape:showpageshadow="2"
     inkscape:pageopacity="0.0"
     inkscape:pagecheckerboard="0"
     inkscape:deskcolor="#d1d1d1"
     showgrid="false"
     inkscape:zoom="1"
     inkscape:cx="340.5"
     inkscape:cy="402"
     inkscape:window-width="1920"
     inkscape:window-height="1009"
     inkscape:window-x="3832"
     inkscape:window-y="-8"
     inkscape:window-maximized="1"
     inkscape:current-layer="svg10" />
  <metadata
     id="metadata16">
    <rdf:RDF>
      <cc:Work
         rdf:about="">
        <dc:format>image/svg+xml</dc:format>
        <dc:type
           rdf:resource="http://purl.org/dc/dcmitype/StillImage" />
      </cc:Work>
    </rdf:RDF>
  </metadata>
  <defs
     id="defs14" />
  <path
     fill="#bc0000"
     fill-opacity="1"
     d="M 0,0 H 563.38027 V 281.69013 H 0 Z"
     id="path2"
     style="fill:#cc0000;fill-opacity:1;stroke-width:0.469481" />
  <path
     fill="#ffd700"
     d="M 93.897469,17.605263 89.94472,29.770489 H 77.153545 l 10.348261,7.518432 -3.952739,12.165216 10.348402,-7.518572 10.348401,7.518572 -3.95274,-12.165216 10.34826,-7.518432 H 97.850213 Z m 0,6.338033 2.529712,7.78568 h 8.186479 l -6.623015,4.811979 2.529715,7.78568 -6.622891,-4.811845 -6.622885,4.811845 2.529703,-7.78568 -6.62302,-4.811979 h 8.186485 z"
     id="path6"
     style="display:inline;stroke-width:0.469481;fill:#ffd800;fill-opacity:1" />
  <path
     style="fill:#ffd800;fill-opacity:1;stroke-width:1.70812"
     id="path6741"
     d="M 93.536422,52.64384 C 110.13122,63.05842 123.48537,79.6408 116.07396,95.25503 l -22.641628,-17.87786 7.695678,-9.6965 -16.572578,-1.73921 -15.55376,19.59812 11.03755,8.71329 7.54904,-9.51132 23.121138,18.25422 c -7.97667,7.65548 -21.384498,9.40788 -34.684478,-3.98908 l -4.90705,6.18238 c 0.27607,0.26694 0.54241,0.52793 0.81417,0.78991 -1.38499,-0.74515 -2.91568,-1.27155 -3.3454,-0.77511 -1.03059,1.19126 0.47412,1.41014 -1.63907,4.0727 -2.03274,2.5612 -3.21289,0.27992 -5.99857,3.78982 -2.12242,2.67422 -1.67496,6.55545 1.00261,8.66948 l 0.004,4.7e-4 c 2.67764,2.11406 6.56917,1.65918 8.69159,-1.01497 2.78568,-3.50986 0.28742,-4.13164 2.32016,-6.69285 2.11319,-2.66258 2.67196,-1.25146 3.59771,-2.52545 0.28461,-0.38943 -0.10883,-1.23338 -0.75036,-2.11869 14.0835,11.68127 32.499548,9.85815 42.252308,-0.58301 l 10.94324,8.63987 c 0,0 3.37718,2.39281 6.16485,-1.11959 2.78773,-3.51246 -0.205,-6.14837 -0.205,-6.14837 l -11.84428,-9.35261 c 9.49896,-16.14762 3.5284,-41.37786 -29.589188,-48.17701 z" />
</svg>
